<svg width="64" height="64" viewBox="0 0 64 64" fill="none" xmlns="http://www.w3.org/2000/svg">
<path opacity="0.3" fill-rule="evenodd" clip-rule="evenodd" d="M21.3333 8H12.6666C11.5621 8 10.6666 8.89543 10.6666 10V59.3333C10.6666 60.4379 11.5621 61.3333 12.6666 61.3333H51.3333C52.4379 61.3333 53.3333 60.4379 53.3333 59.3333V10C53.3333 8.89543 52.4379 8 51.3333 8H42.6666V9.33333C42.6666 11.5425 40.8758 13.3333 38.6666 13.3333H25.3333C23.1242 13.3333 21.3333 11.5425 21.3333 9.33333V8Z" fill="#F4F4F4"/>
<path fill-rule="evenodd" clip-rule="evenodd" d="M34.6667 5.33332L39.5 5.33332C39.7761 5.33332 40 5.55718 40 5.83332V10.1667C40 10.4428 39.7761 10.6667 39.5 10.6667H24.5C24.2239 10.6667 24 10.4428 24 10.1667V5.83332C24 5.55718 24.2239 5.33332 24.5 5.33332L29.3333 5.33332C29.3333 3.86056 30.5272 2.66666 32 2.66666C33.4728 2.66666 34.6667 3.86056 34.6667 5.33332Z" fill="white"/>
<rect opacity="0.3" x="18.6666" y="26.6667" width="13.3333" height="5.33333" rx="2" fill="white"/>
<rect opacity="0.3" x="18.6666" y="37.3333" width="24" height="5.33334" rx="2" fill="white"/>
</svg>
