<svg width="66" height="40" viewBox="0 0 66 40" fill="none" xmlns="http://www.w3.org/2000/svg">
<path d="M55.4436 19.7206C45.9482 21.3139 36.4528 22.9073 29.8791 24.0661C23.3054 25.2249 19.9455 25.5146 16.5856 25.8043C13.5178 26.094 10.304 26.094 7.23625 25.8043C4.89893 25.5146 2.5616 25.2249 0.370361 24.6455C3.14593 25.9491 6.06759 26.9631 9.13533 27.6873C13.5178 28.7013 18.0464 29.1358 22.5749 28.991C27.2496 28.8461 31.7782 28.4116 36.4528 27.6873L44.1952 26.8182C43.0265 28.2667 42.2961 29.8601 41.7118 31.5983C41.2735 33.3365 41.4196 35.0747 42.004 36.8129C42.4422 37.9717 43.1726 39.1305 44.1952 39.9996C44.7795 37.2475 45.656 34.6402 46.6786 32.1777C47.8473 29.5704 49.3081 27.2528 51.0611 24.9352C52.3758 23.0521 53.8367 21.3139 55.4436 19.7206Z" fill="#F4F4F4"/>
<path d="M10.4834 20.279C19.9788 18.6857 29.4742 17.0923 36.0479 15.9335C42.6216 14.7747 45.9815 14.485 49.3415 14.1953C52.4092 13.9056 55.623 13.9056 58.6908 14.1953C61.0281 14.485 63.3654 14.7747 65.5566 15.3541C62.7811 14.0505 59.8594 13.0365 56.7917 12.3123C52.4092 11.2983 47.8806 10.8638 43.3521 11.0086C38.6774 11.1535 34.1488 11.588 29.4742 12.3123L21.7318 13.1814C22.9005 11.7329 23.6309 10.1395 24.2152 8.40132C24.6535 6.66312 24.5074 4.92492 23.923 3.18672C23.4848 2.02791 22.7544 0.86911 21.7318 7.6628e-06C21.1475 2.75216 20.271 5.35947 19.2484 7.82192C18.0797 10.4292 16.6189 12.7468 14.8659 15.0644C13.5512 16.9475 12.0903 18.6857 10.4834 20.279Z" fill="white"/>
</svg>
