<svg width="200" height="28" viewBox="0 0 200 28" fill="none" xmlns="http://www.w3.org/2000/svg">
<path d="M66.4444 22.0176H62.7429L70.2488 4.6857H77.549C78.8856 4.6857 79.811 4.78765 80.5308 5.09351C81.2505 5.39937 81.6618 5.90913 81.9702 6.52084C82.2787 7.23451 82.2787 8.05013 82.0731 8.9677C81.8674 9.88527 81.559 10.7009 80.9421 11.5165C80.4279 12.3321 79.811 13.0458 79.1941 13.5556C78.5772 14.0653 77.9603 14.4731 77.3434 14.677C76.7264 14.9829 75.9039 15.0848 74.8757 15.2888C74.2588 15.3907 73.2305 15.3907 71.5854 15.3907H69.2206L66.4444 22.0176ZM70.4544 12.536H71.5854C73.539 12.536 74.8757 12.4341 75.5954 12.2302C76.3151 12.0263 76.9321 11.6185 77.3434 11.1087C77.8575 10.5989 78.1659 9.98723 78.2687 9.37551C78.3715 8.9677 78.3715 8.66184 78.1659 8.35599C78.0631 8.05013 77.8575 7.84622 77.4462 7.74427C77.0349 7.64232 76.418 7.54037 75.1841 7.54037H72.5108L70.4544 12.536Z" fill="#2A5FE7"/>
<path d="M109.001 15.5944C109.207 14.5748 109.618 13.4534 110.132 12.3319C110.852 10.8026 111.777 9.47722 112.908 8.35574C114.039 7.23427 115.273 6.31669 116.713 5.70498C118.152 5.09326 119.695 4.68546 121.34 4.68546C123.499 4.68546 125.144 5.39912 126.275 6.7245C127.406 8.04989 127.612 9.78308 127.2 12.026C126.789 13.8612 125.967 15.5944 124.733 17.3276C123.499 19.0607 121.957 20.3861 120.311 21.3037C118.563 22.2213 116.816 22.731 114.862 22.731C113.217 22.731 111.88 22.3232 110.955 21.6096C110.029 20.8959 109.413 19.9783 109.104 18.8568C108.796 17.8373 108.796 16.7158 109.001 15.5944ZM112.703 15.5944C112.394 16.8178 112.6 17.7354 113.217 18.551C113.834 19.3666 114.656 19.7744 115.89 19.7744C116.918 19.7744 117.947 19.4686 118.975 18.8568C120.003 18.2451 121.031 17.2256 121.854 16.0022C122.779 14.6768 123.293 13.4534 123.602 12.2299C123.91 10.9046 123.704 9.78308 123.19 8.96746C122.573 8.15184 121.751 7.84598 120.517 7.84598C118.769 7.84598 117.124 8.6616 115.582 10.2928C114.039 11.8221 113.114 13.6573 112.703 15.5944Z" fill="#F6F9FD"/>
<path d="M127.511 16.7161L131.007 16.5122C130.801 17.6337 130.801 18.3473 131.11 18.6532C131.521 19.2649 132.447 19.5708 133.886 19.5708C135.12 19.5708 136.045 19.3668 136.662 18.959C137.279 18.5512 137.69 18.0415 137.793 17.4298C137.896 16.92 137.793 16.5122 137.382 16.1044C137.176 15.7985 136.354 15.3907 135.12 14.8809C133.886 14.2692 132.961 13.7595 132.447 13.4536C131.933 13.0458 131.521 12.536 131.316 11.9243C131.11 11.3126 131.11 10.5989 131.213 9.78332C131.521 8.35599 132.344 7.13256 133.68 6.11303C135.017 5.19546 136.662 4.6857 138.719 4.6857C140.775 4.6857 142.317 5.19546 143.243 6.11303C144.168 7.03061 144.579 8.35599 144.271 9.88527L140.672 9.98723C140.775 9.17161 140.569 8.55989 140.158 8.05013C139.747 7.64232 139.027 7.33646 137.999 7.33646C136.971 7.33646 136.251 7.54037 135.737 7.84622C135.223 8.15208 134.914 8.66184 134.811 9.17161C134.709 9.68137 134.811 10.0892 135.12 10.395C135.428 10.7009 136.251 11.2107 137.485 11.7204C139.336 12.536 140.467 13.2497 140.981 13.8614C141.598 14.677 141.803 15.6966 141.598 16.92C141.289 18.4493 140.364 19.7747 138.924 20.7942C137.485 21.8137 135.634 22.4254 133.372 22.4254C131.83 22.4254 130.596 22.2215 129.568 21.7118C128.539 21.202 127.923 20.4883 127.614 19.5708C127.306 18.8571 127.306 17.8376 127.511 16.7161Z" fill="#F6F9FD"/>
<path d="M150.131 22.0176H146.43L152.702 7.54037H147.458L148.692 4.6857H162.778L161.544 7.54037H156.403L150.131 22.0176Z" fill="#F6F9FD"/>
<path d="M157.228 18.7627H160.724L159.285 22.0252H155.789L157.228 18.7627Z" fill="#F6F9FD"/>
<path d="M162.679 22.0176L170.185 4.6857H173.886L170.699 12.0263L180.569 4.6857H185.505L175.942 11.5165L179.541 22.0176H175.428L172.858 13.7595L168.745 16.7161L166.483 22.0176H162.679Z" fill="#F6F9FD"/>
<path d="M180.259 22.0176L181.39 19.2649L194.242 7.54037H185.914L187.147 4.6857H200L198.972 7.43842L186.016 19.2649C187.147 19.2649 187.764 19.2649 187.97 19.2649C188.793 19.2649 189.821 19.2649 191.157 19.2649H195.373L194.139 22.1196L180.259 22.0176Z" fill="#F6F9FD"/>
<path d="M84.8513 22.0112H81.1106L87.6077 4.6857H91.939L84.8513 22.0112Z" fill="#2A5FE7"/>
<path d="M93.475 22.0176H89.7734L97.2793 4.6857H104.58C105.916 4.6857 106.842 4.78765 107.561 5.09351C108.281 5.39937 108.692 5.90913 109.001 6.52084C109.309 7.23451 109.309 8.05013 109.104 8.9677C108.898 9.88527 108.589 10.7009 107.973 11.5165C107.458 12.3321 106.842 13.0458 106.225 13.5556C105.608 14.0653 104.991 14.4731 104.374 14.677C103.757 14.9829 102.934 15.0848 101.906 15.2888C101.289 15.3907 100.261 15.3907 98.6159 15.3907H96.2511L93.475 22.0176ZM97.4849 12.536H98.6159C100.57 12.536 101.906 12.4341 102.626 12.2302C103.346 12.0263 103.963 11.6185 104.374 11.1087C104.888 10.5989 105.196 9.98723 105.299 9.37551C105.402 8.9677 105.402 8.66184 105.196 8.35599C105.094 8.05013 104.888 7.84622 104.477 7.74427C104.065 7.64232 103.448 7.54037 102.215 7.54037H99.5413L97.4849 12.536Z" fill="#F6F9FD"/>
<path d="M56.0496 18.1434H48.9551L45.9733 22.0176H42.1689L56.0496 4.6857H60.1624L59.237 22.0176H55.7412L56.0496 18.1434ZM56.2553 15.2888L56.6665 8.35599L50.8058 15.3907L56.2553 15.2888Z" fill="#2A5FE7"/>
<path d="M34.6511 8.45092C28.9688 7.90634 23.2865 7.36177 19.344 7.01666C15.4016 6.67155 13.433 6.32188 11.4644 5.97221C9.66309 5.66738 7.8226 5.17422 6.11023 4.53757C4.81615 4.01301 3.52206 3.48844 2.3561 2.82039C3.74556 3.99287 5.26314 5.02186 6.90884 5.90737C9.263 7.16052 11.7897 8.10429 14.4054 8.71624C17.1047 9.3506 19.7648 9.79665 22.553 10.0992L27.1202 10.7895C26.2287 11.4397 25.5659 12.2401 24.9645 13.1459C24.4468 14.0741 24.2638 15.0919 24.3317 16.177C24.4048 16.9079 24.6453 17.6836 25.0976 18.3382C25.8545 16.8518 26.7566 15.4932 27.72 14.2399C28.7894 12.9261 29.9816 11.823 31.3411 10.7647C32.383 9.88809 33.4863 9.11682 34.6511 8.45092Z" fill="#F6F9FD"/>
<path d="M0.000207639 18.9959C5.50007 19.523 10.9999 20.0501 14.8158 20.3842C18.6317 20.7182 20.5371 21.0566 22.4425 21.3951C24.1859 21.6901 25.9673 22.1674 27.6247 22.7836C28.8772 23.2914 30.1298 23.7991 31.2583 24.4457C29.9135 23.3109 28.4446 22.3149 26.8517 21.4578C24.5732 20.2449 22.1276 19.3314 19.5959 18.7391C16.9833 18.1251 14.4086 17.6934 11.7099 17.4006L7.28925 16.7324C8.15217 16.1031 8.79368 15.3284 9.37573 14.4517C9.87681 13.5533 10.054 12.5681 9.98827 11.5179C9.91746 10.8105 9.68471 10.0597 9.24698 9.42606C8.51433 10.8648 7.64126 12.1798 6.70872 13.3928C5.6737 14.6645 4.51976 15.7322 3.20387 16.7564C2.19544 17.6049 1.12755 18.3514 0.000207639 18.9959Z" fill="#2A5FE7"/>
</svg>
