<svg width="32" height="32" viewBox="0 0 32 32" fill="none" xmlns="http://www.w3.org/2000/svg">
<path opacity="0.3" d="M18.6679 9.33334C18.6679 10.0697 19.2646 10.6667 20.0006 10.6667C20.7367 10.6667 21.3334 10.0697 21.3334 9.33334V8C21.3334 5.05448 18.9466 2.66667 16.0024 2.66667H8.007C5.06276 2.66667 2.67598 5.05448 2.67598 8V24C2.67598 26.9455 5.06276 29.3333 8.007 29.3333H16.0116C18.9559 29.3333 21.3427 26.9455 21.3427 24V22.6667C21.3427 21.9303 20.746 21.3333 20.0099 21.3333C19.2738 21.3333 18.6771 21.9303 18.6771 22.6667V24C18.6771 25.4728 17.4838 26.6667 16.0116 26.6667H8.007C6.53488 26.6667 5.34149 25.4728 5.34149 24V8C5.34149 6.52724 6.53488 5.33334 8.007 5.33334H16.0024C17.4745 5.33334 18.6679 6.52724 18.6679 8V9.33334Z" fill="white"/>
<rect opacity="0.3" x="26.6666" y="14.6667" width="2.66667" height="16" rx="1" transform="rotate(90 26.6666 14.6667)" fill="white"/>
<path d="M23.0572 12.9428C22.5365 12.4221 22.5365 11.5779 23.0572 11.0572C23.5778 10.5365 24.4221 10.5365 24.9428 11.0572L28.9428 15.0572C29.4635 15.5779 29.4635 16.4221 28.9428 16.9428L24.9428 20.9428C24.4221 21.4635 23.5778 21.4635 23.0572 20.9428C22.5365 20.4221 22.5365 19.5779 23.0572 19.0572L26.1143 16L23.0572 12.9428Z" fill="white"/>
</svg>
