<svg width="64" height="64" viewBox="0 0 64 64" fill="none" xmlns="http://www.w3.org/2000/svg">
<path opacity="0.3" d="M38.1144 44.5523C37.073 43.5109 37.073 41.8224 38.1144 40.781C39.1558 39.7397 40.8443 39.7397 41.8857 40.781L52.5523 51.4477C53.5937 52.4891 53.5937 54.1776 52.5523 55.219C51.5109 56.2603 49.8225 56.2603 48.7811 55.219L38.1144 44.5523Z" fill="#F4F4F4"/>
<path fill-rule="evenodd" clip-rule="evenodd" d="M10.6666 29.3333C10.6666 39.6426 19.024 48 29.3333 48C39.6426 48 48 39.6426 48 29.3333C48 19.024 39.6426 10.6667 29.3333 10.6667C19.024 10.6667 10.6666 19.024 10.6666 29.3333ZM42.6666 29.3333C42.6666 36.6971 36.6971 42.6667 29.3333 42.6667C21.9695 42.6667 16 36.6971 16 29.3333C16 21.9695 21.9695 16 29.3333 16C36.6971 16 42.6666 21.9695 42.6666 29.3333Z" fill="white"/>
</svg>
