<svg width="568" height="142" viewBox="0 0 568 142" fill="none" xmlns="http://www.w3.org/2000/svg">
<path d="M568 -13.83C474.855 -22.7446 381.711 -31.6591 317.086 -37.3084C252.461 -42.9577 220.192 -48.6817 187.923 -54.4056C158.396 -59.3957 128.227 -67.4685 100.157 -77.8902C78.9447 -86.4772 57.7321 -95.0642 38.6195 -106C61.3957 -86.8068 86.2719 -69.9625 113.248 -55.4671C151.838 -34.9533 193.256 -19.5042 236.132 -9.48679C280.379 0.897598 323.983 8.1992 369.688 13.152L444.554 24.4527C429.94 35.0962 419.076 48.1985 409.218 63.0256C400.732 78.2197 397.731 94.8816 398.844 112.644C400.044 124.608 403.985 137.306 411.399 148.023C423.807 123.69 438.593 101.449 454.386 80.9335C471.915 59.4267 491.458 41.3695 513.743 24.0463C530.822 9.69603 548.907 -2.92943 568 -13.83Z" fill="white"/>
<path d="M0 158.789C90.154 167.417 180.308 176.046 242.858 181.514C305.408 186.982 336.641 192.522 367.875 198.062C396.453 202.892 425.654 210.706 452.822 220.793C473.354 229.104 493.885 237.415 512.384 248C490.339 229.423 466.262 213.12 440.152 199.089C402.801 179.234 362.713 164.281 321.213 154.585C278.387 144.534 236.183 137.467 191.945 132.673L119.482 121.736C133.627 111.434 144.143 98.7521 153.684 84.401C161.898 69.6948 164.802 53.5679 163.725 36.3755C162.564 24.7955 158.749 12.5051 151.574 2.1331C139.564 25.6844 125.252 47.211 109.966 67.0682C93.0001 87.8845 74.0846 105.362 52.5146 122.129C35.9844 136.018 18.4795 148.239 0 158.789Z" fill="white"/>
</svg>
